<svg xmlns="http://www.w3.org/2000/svg" viewBox="0 0 512.141 512.141">
  <g fill="#87d2f3">
    <circle cx="362.737" cy="480" r="21.333"/>
    <circle cx="256.071" cy="480" r="21.333"/>
    <circle cx="149.404" cy="480" r="21.333"/>
  </g>
  <path fill="#fff" d="M448.071 85.227c0 10.453.107 32.107.107 32.107H245.404V74.667h192.107c5.713-.119 10.441 4.416 10.56 10.129.003.143.003.287 0 .431z"/>
  <path fill="#87d2f3" d="M245.404 117.333h234.667c11.768.035 21.298 9.566 21.333 21.333V320c.244 11.538-8.911 21.089-20.449 21.333a21.71 21.71 0 01-.884 0H362.737V224c0-5.891-4.776-10.667-10.667-10.667H234.737v-32c0-5.891-4.776-10.667-10.667-10.667h-64c-5.891 0-10.667 4.776-10.667 10.667v160H32.071c-11.538.244-21.089-8.911-21.333-20.449a21.71 21.71 0 010-.884V32c.035-11.767 9.566-21.298 21.333-21.333h192c11.767.035 21.298 9.566 21.333 21.333v85.333z"/>
  <path fill="#fff" d="M234.737 213.333H352.07c5.891 0 10.667 4.776 10.667 10.667v128c0 5.891-4.776 10.667-10.667 10.667h-192c-5.891 0-10.667-4.776-10.667-10.667V181.333c0-5.891 4.776-10.667 10.667-10.667h64c5.891 0 10.667 4.776 10.667 10.667v32z"/>
  <g fill="#2170a6">
    <path d="M160.071 449.963V416h85.333c11.538.244 21.089-8.911 21.333-20.449a21.71 21.71 0 000-.884v-21.333h85.333c11.782 0 21.333-9.551 21.333-21.333V224c0-11.782-9.551-21.333-21.333-21.333H245.404v-21.333c0-11.782-9.551-21.333-21.333-21.333h-64c-11.782 0-21.333 9.551-21.333 21.333V352c0 11.782 9.551 21.333 21.333 21.333h85.333v21.333h-85.333c-11.538-.244-21.089 8.911-21.333 20.449a21.71 21.71 0 000 .884v33.963c-16.662 5.891-25.394 24.174-19.503 40.837 5.891 16.662 24.174 25.394 40.837 19.503s25.394-24.174 19.503-40.837a32.004 32.004 0 00-19.504-19.502zm0-268.63h64v21.333h-32V224h160v128h-192V181.333zm-10.667 309.334c-5.891 0-10.667-4.776-10.667-10.667s4.776-10.667 10.667-10.667 10.667 4.776 10.667 10.667-4.776 10.667-10.667 10.667z"/>
    <path d="M266.737 449.963v-23.296h-21.333v23.296c-16.662 5.891-25.394 24.174-19.503 40.837 5.891 16.662 24.174 25.394 40.837 19.503s25.394-24.174 19.503-40.837a32.001 32.001 0 00-19.504-19.503zm-10.666 40.704c-5.891 0-10.667-4.776-10.667-10.667s4.776-10.667 10.667-10.667 10.667 4.776 10.667 10.667c-.001 5.891-4.776 10.667-10.667 10.667zM373.404 449.963V416c.244-11.538-8.911-21.089-20.449-21.333a21.71 21.71 0 00-.884 0h-64V416h64v33.963c-16.662 5.891-25.394 24.174-19.503 40.837 5.891 16.662 24.174 25.394 40.837 19.503s25.394-24.174 19.503-40.837a32.003 32.003 0 00-19.504-19.503zm-10.667 40.704c-5.891 0-10.667-4.776-10.667-10.667s4.776-10.667 10.667-10.667 10.667 4.776 10.667 10.667-4.776 10.667-10.667 10.667zM309.404 309.333h-21.333v21.333h32c5.891 0 10.667-4.776 10.667-10.667v-32h-21.333v21.334z"/>
    <path d="M480.071 106.667h-21.28c-.053-6.987-.053-15.808-.053-21.44.244-11.479-8.864-20.983-20.343-21.227a21.71 21.71 0 00-.884 0h-181.44V32c0-17.673-14.327-32-32-32h-192c-17.673 0-32 14.327-32 32v288c-.502 17.171 13.01 31.498 30.181 32 .606.018 1.213.018 1.819 0h85.333v-21.333H32.071c-5.365.526-10.14-3.395-10.667-8.76a9.8 9.8 0 010-1.907V32c0-5.891 4.776-10.667 10.667-10.667h192c5.891 0 10.667 4.776 10.667 10.667v74.667H96.071V128h384c5.891 0 10.667 4.776 10.667 10.667v181.205c.572 5.384-3.329 10.211-8.713 10.783a9.815 9.815 0 01-1.954.012h-85.333V352h85.333c17.171.502 31.498-13.01 32-30.181.018-.606.018-1.213 0-1.819V138.667c0-17.673-14.327-32-32-32zm-224-21.334l181.333.192c0 5.632 0 14.251.053 21.131H256.071V85.333z"/>
  </g>
</svg>