<svg xmlns="http://www.w3.org/2000/svg" viewBox="0 0 512 512">
  <path fill="#87d2f3" d="M448 96h-64c-11.767-.035-21.298-9.566-21.333-21.333v-64L448 96z"/>
  <g fill="#fff">
    <path d="M448 96v384c-.035 11.768-9.566 21.298-21.333 21.333H85.333C73.566 501.298 64.035 491.768 64 480V32c.035-11.767 9.566-21.298 21.333-21.333h277.333v64C362.702 86.434 372.233 95.965 384 96h64z"/>
    <path d="M352 224v21.333H234.667v-32H352V224z"/>
  </g>
  <path fill="#87d2f3" d="M384 256v170.667c0 5.891-4.776 10.667-10.667 10.667H138.667c-5.891 0-10.667-4.776-10.667-10.667v-224c0-5.891 4.776-10.667 10.667-10.667H224c5.891 0 10.667 4.776 10.667 10.667v42.667h138.667C379.224 245.333 384 250.109 384 256z"/>
  <g fill="#2170a6">
    <path d="M117.333 64H224v21.333H117.333V64zM117.333 106.667h21.333V128h-21.333v-21.333zM160 106.667h21.333V128H160v-21.333z"/>
    <path d="M455.541 88.459L370.208 3.125A10.662 10.662 0 00362.667 0H85.333c-17.673 0-32 14.327-32 32v448c0 17.673 14.327 32 32 32h341.333c17.673 0 32-14.327 32-32V96a10.66 10.66 0 00-3.125-7.541zM437.333 480c0 5.891-4.776 10.667-10.667 10.667H85.333c-5.891 0-10.667-4.776-10.667-10.667V32c0-5.891 4.776-10.667 10.667-10.667H352v53.333c0 17.673 14.327 32 32 32h21.333V85.333H384c-5.891 0-10.667-4.776-10.667-10.667v-38.25l64 64V480z"/>
    <path d="M373.333 234.667h-128V224h117.333v-10.667c0-5.891-4.776-10.667-10.667-10.667H245.333c0-11.782-9.551-21.333-21.333-21.333h-85.333c-11.782 0-21.333 9.551-21.333 21.333v224c0 11.782 9.551 21.333 21.333 21.333H192v-21.333h-53.333v-224H224v32h-32V256h181.333v170.667H320V448h53.333c11.782 0 21.333-9.551 21.333-21.333V256c.001-11.782-9.551-21.333-21.333-21.333z"/>
    <path d="M266.667 411.584V298.667h-21.333v112.917l-24.459-24.459-15.083 15.083 42.667 42.667c4.165 4.164 10.917 4.164 15.083 0l42.667-42.667-15.083-15.083-24.459 24.459z"/>
  </g>
</svg>