<svg xmlns="http://www.w3.org/2000/svg" viewBox="0 0 512 512">
  <circle cx="256" cy="362.667" r="96" fill="#fff"/>
  <g fill="#87d2f3">
    <path d="M458.667 320v85.333c-29.455 0-53.333 23.878-53.333 53.333H256c53.019 0 96-42.981 96-96s-42.981-96-96-96h149.333c0 29.456 23.878 53.334 53.334 53.334zM160 266.667h96c-53.019 0-96 42.981-96 96s42.981 96 96 96H106.667c0-29.455-23.878-53.333-53.333-53.333V320c29.455 0 53.333-23.878 53.333-53.333H160z"/>
  </g>
  <path fill="#fff" d="M10.667 480V245.333C10.702 233.566 20.233 224.035 32 224h448c11.768.035 21.298 9.566 21.333 21.333V480c-.035 11.768-9.566 21.298-21.333 21.333H32c-11.767-.035-21.298-9.565-21.333-21.333zm448-74.667V320c-29.455 0-53.333-23.878-53.333-53.333H106.667c0 29.455-23.878 53.333-53.333 53.333v85.333c29.455 0 53.333 23.878 53.333 53.333h298.667c-.001-29.455 23.877-53.333 53.333-53.333z"/>
  <g fill="#87d2f3">
    <path d="M192 74.667h85.333c11.782 0 21.333 9.551 21.333 21.333v42.667c0 11.782-9.551 21.333-21.333 21.333H192c-11.782 0-21.333-9.551-21.333-21.333V96c0-11.782 9.551-21.333 21.333-21.333zM64 10.667h85.333c11.782 0 21.333 9.551 21.333 21.333v42.667c0 11.782-9.551 21.333-21.333 21.333H64c-11.782 0-21.333-9.551-21.333-21.333V32c0-11.782 9.551-21.333 21.333-21.333z"/>
  </g>
  <g fill="#2170a6">
    <path d="M480 213.333H245.333v21.333H480c5.891 0 10.667 4.776 10.667 10.667V480c0 5.891-4.776 10.667-10.667 10.667H32c-5.891 0-10.667-4.776-10.667-10.667V245.333c0-5.891 4.776-10.667 10.667-10.667h106.667v-21.333H32c-17.673 0-32 14.327-32 32V480c0 17.673 14.327 32 32 32h448c17.673 0 32-14.327 32-32V245.333c0-17.673-14.327-32-32-32z"/>
    <path d="M395.552 448H352v21.333h53.333c5.891 0 10.667-4.776 10.667-10.667C416 435.103 435.103 416 458.667 416c5.891 0 10.667-4.776 10.667-10.667V320c0-5.891-4.776-10.667-10.667-10.667-23.564 0-42.667-19.103-42.667-42.667 0-5.891-4.776-10.667-10.667-10.667h-32v21.333h22.219c4.588 26.838 25.61 47.86 52.448 52.448v65.771c-26.838 4.589-47.86 25.611-52.448 52.449zM42.667 256H64v21.333H42.667V256zM448 256h21.333v21.333H448V256zM448 448h21.333v21.333H448V448zM42.667 448H64v21.333H42.667V448z"/>
    <path d="M256 256c-58.91 0-106.667 47.756-106.667 106.667 0 58.91 47.756 106.667 106.667 106.667s106.667-47.756 106.667-106.667C362.602 303.783 314.884 256.065 256 256zm0 192c-47.128 0-85.333-38.205-85.333-85.333s38.205-85.333 85.333-85.333 85.333 38.205 85.333 85.333C341.28 409.773 303.106 447.947 256 448z"/>
    <path d="M64 106.667h85.333A31.614 31.614 0 00160 104.704v129.963c.718 11.064-7.668 20.615-18.732 21.333-.866.056-1.735.056-2.602 0h-32C100.776 256 96 260.776 96 266.667c0 23.564-19.103 42.667-42.667 42.667-5.891 0-10.667 4.776-10.667 10.667v85.333c0 5.891 4.776 10.667 10.667 10.667C76.897 416 96 435.103 96 458.667c0 5.891 4.776 10.667 10.667 10.667H160V448h-43.552c-4.588-26.838-25.61-47.86-52.448-52.448v-65.771c26.838-4.588 47.86-25.61 52.448-52.448h22.219c22.888.676 41.991-17.331 42.667-40.22.024-.815.024-1.631 0-2.447v-65.963a31.663 31.663 0 0010.667 1.963h85.333c17.673 0 32-14.327 32-32V96c0-17.673-14.327-32-32-32H192a31.614 31.614 0 00-10.667 1.963V32c0-17.673-14.327-32-32-32H64C46.327 0 32 14.327 32 32v42.667c0 17.673 14.327 32 32 32zm128-21.334h85.333C283.224 85.333 288 90.109 288 96v42.667c0 5.891-4.776 10.667-10.667 10.667H192c-5.891 0-10.667-4.776-10.667-10.667V128H256v-21.333h-74.667V96c0-5.891 4.776-10.667 10.667-10.667zM53.333 32c0-5.891 4.776-10.667 10.667-10.667h85.333C155.224 21.333 160 26.109 160 32v10.667H85.333V64H160v10.667c0 5.891-4.776 10.667-10.667 10.667H64c-5.891 0-10.667-4.776-10.667-10.667V32z"/>
    <path d="M202.667 213.333H224v21.333h-21.333v-21.333z"/>
  </g>
</svg>