<svg xmlns="http://www.w3.org/2000/svg" viewBox="0 0 512 512">
  <g fill="#87d2f3">
    <path d="M172.693 138.667a64.072 64.072 0 01-34.027 28.267v14.4a448.58 448.58 0 0053.333 21.333c32 10.667 32 32 32 32v74.667H10.667v-74.667s0-21.333 32-32A448.512 448.512 0 0096 181.334v-14.4a64.076 64.076 0 01-34.027-28.267 63.06 63.06 0 01-8.64-32v-32c0-35.346 28.654-64 64-64s64 28.654 64 64v32a63.042 63.042 0 01-8.64 32zM450.027 341.333A64.076 64.076 0 01416 369.6V384a448.58 448.58 0 0053.333 21.333c32 10.667 32 32 32 32V512H288v-74.667s0-21.333 32-32A448.512 448.512 0 00373.333 384v-14.4a64.076 64.076 0 01-34.027-28.267 63.06 63.06 0 01-8.64-32v-32c0-35.346 28.654-64 64-64s64 28.654 64 64v32a63.046 63.046 0 01-8.639 32z"/>
  </g>
  <g fill="#fff">
    <path d="M10.667 448v-85.333c0-5.891 4.776-10.667 10.667-10.667h325.76a64.168 64.168 0 0026.24 17.6V384a448.58 448.58 0 01-53.333 21.333c-32 10.667-32 32-32 32v21.333H21.333c-5.891.001-10.666-4.775-10.666-10.666zM177.707 53.333h312.96c5.891 0 10.667 4.776 10.667 10.667v85.333c0 5.891-4.776 10.667-10.667 10.667H152.533a63.657 63.657 0 0028.8-53.333v-32a64.47 64.47 0 00-3.626-21.334z"/>
  </g>
  <g fill="#2170a6">
    <path d="M234.667 309.333h-21.333v-74.667c0-.288-1.067-14.005-24.704-21.877a455.85 455.85 0 01-54.731-21.856 10.667 10.667 0 01-5.899-9.6v-14.4a10.667 10.667 0 017.168-10.08 48.539 48.539 0 0011.381-5.696 53.022 53.022 0 0024.117-44.491v-32a54.071 54.071 0 00-3.029-17.813c-9.786-27.782-40.24-42.371-68.023-32.586C78.242 31.796 63.96 52.007 64 74.667v32c.03 22.57 14.264 42.679 35.541 50.208a10.666 10.666 0 017.125 10.059v14.4a10.667 10.667 0 01-5.899 9.547 455.856 455.856 0 01-54.731 21.909c-23.637 7.872-24.704 21.589-24.704 22.165v74.379H0v-74.667c0-1.184.448-29.173 39.296-42.123a476.033 476.033 0 0046.037-17.973v-.512c-26.035-12.349-42.64-38.577-42.667-67.392v-32C42.667 33.429 76.096 0 117.333 0S192 33.429 192 74.667v32a74.252 74.252 0 01-33.611 62.251 69.098 69.098 0 01-9.056 5.152v.501a475.617 475.617 0 0046.037 17.973c38.848 12.949 39.296 40.939 39.296 42.123v74.666z"/>
    <path d="M106.667 245.333H128v21.333h-21.333v-21.333zM149.333 245.333h21.333v21.333h-21.333v-21.333zM64 245.333h21.333v21.333H64v-21.333zM512 512h-21.333v-74.667c0-.288-1.067-14.005-24.704-21.888a454.892 454.892 0 01-54.731-21.845 10.667 10.667 0 01-5.899-9.6v-14.4a10.667 10.667 0 017.125-10.059c21.278-7.53 35.512-27.638 35.541-50.208v-32C448 247.878 424.122 224 394.667 224s-53.333 23.878-53.333 53.333v32a52.761 52.761 0 0013.664 35.499 53.527 53.527 0 0021.941 14.731A10.665 10.665 0 01384 369.6V384a10.667 10.667 0 01-5.899 9.6 455.003 455.003 0 01-54.731 21.899c-23.637 7.829-24.704 21.547-24.704 22.123V512h-21.333v-74.667c0-1.184.448-29.163 39.296-42.112a474.338 474.338 0 0046.037-17.995v-.533c-25.996-12.377-42.586-38.569-42.667-67.36v-32c0-41.237 33.429-74.667 74.667-74.667s74.667 33.429 74.667 74.667v32c-.023 28.819-16.629 55.052-42.667 67.403v.491a474.696 474.696 0 0046.037 17.995C511.552 408.171 512 436.149 512 437.333V512z"/>
    <path d="M384 448h21.333v21.333H384V448zM426.667 448H448v21.333h-21.333V448zM341.333 448h21.333v21.333h-21.333V448zM490.667 170.667h-288v-21.333h288V64H213.333V42.667h277.333C502.449 42.667 512 52.218 512 64v85.333c0 11.782-9.551 21.334-21.333 21.334zM256 469.333H21.333C9.551 469.333 0 459.782 0 448v-85.333c0-11.782 9.551-21.333 21.333-21.333h277.333v21.333H21.333V448H256v21.333z"/>
    <path d="M213.333 96h213.333v21.333H213.333V96zM85.333 394.667H256V416H85.333v-21.333zM42.667 394.667H64V416H42.667v-21.333zM448 96h21.333v21.333H448V96z"/>
  </g>
</svg>