<?xml version="1.0" encoding="utf-8"?>
<!-- Generator: Adobe Illustrator 19.0.0, SVG Export Plug-In . SVG Version: 6.00 Build 0)  -->
<svg version="1.1" id="Layer_1" xmlns="http://www.w3.org/2000/svg" xmlns:xlink="http://www.w3.org/1999/xlink" x="0px" y="0px"
	 viewBox="0 0 256 176" style="enable-background:new 0 0 256 176;" xml:space="preserve">
<style type="text/css">
	.st0{fill:#2DABE2;}
	.st1{display:none;}
	.st2{display:inline;fill:#FFFFFF;}
	.st3{display:inline;fill-rule:evenodd;clip-rule:evenodd;fill:#FFFFFF;}
	.st4{fill-rule:evenodd;clip-rule:evenodd;fill:#FFFFFF;}
	.st5{fill:#FFFFFF;}
</style>
<g id="master_1_">
	<path id="XMLID_27_" class="st0" d="M241.4,176H14.6C6.5,176,0,169.4,0,161.3V14.7C0,6.6,6.5,0,14.6,0h226.7
		c8.1,0,14.6,6.6,14.6,14.7v146.7C256,169.4,249.5,176,241.4,176z"/>
	<g class="st1">
		<path class="st2" d="M63.8,112.1l-2.4-9H45.9l-2.4,9H29.3l15.6-48.2h17.3L78,112.1H63.8z M58.8,92.5l-2.1-7.9
			c-0.5-1.7-1.1-4-1.8-6.8c-0.7-2.8-1.1-4.8-1.4-6c-0.2,1.1-0.6,3-1.2,5.5s-1.9,7.6-3.9,15.1L58.8,92.5L58.8,92.5z"/>
		<path id="XMLID_24_" class="st2" d="M104.1,112.1l-9.8-34.6H94c0.5,5.9,0.7,10.5,0.7,13.7v20.9H83.2v-48h17.2l10,34.1h0.3
			l9.8-34.1h17.3v48h-11.9V91c0-1.1,0-2.3,0.1-3.6c0-1.3,0.2-4.6,0.4-9.8h-0.3l-9.7,34.5L104.1,112.1L104.1,112.1z"/>
		<path id="XMLID_23_" class="st2" d="M175.2,112.1h-28.5v-48h28.5v10.4h-15.5v7.6H174v10.4h-14.4v9.1h15.5V112.1z"/>
		<path id="XMLID_22_" class="st2" d="M226.7,112.1h-15l-9.4-15l-9.2,15h-14.7l15.9-24.6l-14.9-23.5h14.4l8.7,14.9l8.3-14.9h14.8
			l-15.2,24.5L226.7,112.1z"/>
	</g>
	<g class="st1">
		<path class="st3" d="M68.1,73.8l-8-17.9H50v25.7L38.5,55.9h-4.3h-4.4L18.3,82.7h6.9l2.4-6.1h6.6h6.5l2.5,6.1h13.3V62.7l8.7,19.9h6
			L80,63.2v19.5h6.5V55.9H76.1L68.1,73.8L68.1,73.8z M34.2,70.9h-4l4-9.3v0.3l4,9H34.2L34.2,70.9z"/>
		<path class="st3" d="M140.9,63c0-5.6-4.6-7.1-7.8-7.1h-4.6h-12.4v26.7h6.5v-9.5h5.9h2.5c2.4,0,3.2,2.2,3.2,4.4l0.1,5h6.5l-0.3-5.5
			c0-4.4-1.2-6.4-4.1-6.8C139.9,68.7,140.9,66.3,140.9,63L140.9,63z M130.7,67.8h-2.2h-5.9v-6.1h5.9h2.2c2.7,0,3.5,1.8,3.5,3.1
			C134.3,66.6,133.4,67.8,130.7,67.8L130.7,67.8z"/>
		<polygon id="XMLID_17_" class="st3" points="144.3,82.7 150.8,82.7 150.8,55.9 144.3,55.9 144.3,82.7 		"/>
		<path class="st3" d="M218,55.9v18.5l-11.1-18.5h-9.7v25l-11.2-25h-4.1h-4.4l-9,20.7c0,0-3.2,0-3.7-0.1c-2.1-0.3-4.6-2.4-4.6-7.1
			c0-6.2,3.4-7.7,7.8-7.7h4v-5.8h-8.5c-2.9,0-9.4,2.2-9.6,13.3c-0.3,7.2,2.9,13.4,10.3,13.4h8.5l2.5-6.1h6.6h6.3l2.7,6.1h13V63.2
			l11.6,19.5h9V55.9H218L218,55.9z M181.9,70.9h-4l3.8-9.3l0.1,0.3l4,9H181.9L181.9,70.9z"/>
		<polygon id="XMLID_14_" class="st3" points="90.9,82.7 112.3,82.7 112.3,77.1 97.4,77.1 97.4,71.8 111.9,71.8 111.9,66.7 
			97.4,66.7 97.4,61.7 112.3,61.7 112.3,55.9 90.9,55.9 90.9,82.7 		"/>
		<path id="XMLID_13_" class="st3" d="M204.4,103.8c-0.3,0-4-0.1-4.6-0.1c-1.5-0.1-2.7-0.6-2.7-2.1c0-2.7,2.5-2.4,4.9-2.4h10v-5.8
			h-13.9c-4.1,0-7.7,2.7-7.7,7.7c0,4.4,1.6,8.1,8.8,8.3c0.4,0,3.7,0,4.6,0.1c1.9,0.3,2.4,1,2.4,2.2c0,2.7-2.7,2.7-4.4,2.7h-10.8v5.6
			h13.7c4.3,0,8.4-2.7,8.4-7.5C213.2,108.2,212.5,104.1,204.4,103.8L204.4,103.8z"/>
		<path id="XMLID_12_" class="st3" d="M229,103.8c-0.4,0-4.1-0.1-4.6-0.1c-1.6-0.1-2.8-0.6-2.8-2.1c0-2.7,2.5-2.4,4.7-2.4h10v-5.8
			h-13.7c-4.3,0-7.8,2.7-7.8,7.7c0,4.4,1.8,8.1,9,8.3c0.6,0,3.7,0,4.6,0.1c1.8,0.3,2.4,1,2.4,2.2c0,2.7-2.8,2.7-4.6,2.7h-10.6v5.6
			h13.7c4.3,0,8.4-2.7,8.4-7.5C237.7,108.2,237,104.1,229,103.8L229,103.8z"/>
		<path class="st3" d="M127.6,93.5h-4.6H106h-1.3l-7.4,8.1l-7.4-8.1h-8.1H64.1v26.4h17.7h7.4l7.8-8.7l7.7,8.9h1.3h11.2v-9h5.9h2.8
			c3.4,0,9.7-0.1,9.7-9.5C135.6,94.9,130.9,93.5,127.6,93.5L127.6,93.5z M85.6,114.4h-3.8H70.7v-5.3h11.1h3.4v-5h-3.4H70.7v-4.9
			h11.1h3.8l7.4,7.1L85.6,114.4L85.6,114.4z M110.7,117.4l-4.7-5.5l-4.7-5.6l4.7-5l4.7-5.3V117.4L110.7,117.4z M125.3,105.6h-2.2
			h-5.9v-6.4h5.9h2.2c2.7,0,3.7,1.6,3.7,3C129,103.9,127.9,105.6,125.3,105.6L125.3,105.6z"/>
		<path class="st3" d="M163.4,100.5c0-5.8-4.7-7.1-7.8-7.1h-4.6h-12.5v26.6h6.5v-9.5h6h2.7c2.2,0,3.1,2.2,3.2,4.6l0.1,4.9h6.3
			l-0.3-5.5c0-4.3-1.2-6.2-4.3-6.6C162.6,106.2,163.4,103.8,163.4,100.5L163.4,100.5z M153.3,105.1h-2.2h-6v-5.9h6h2.2
			c2.7,0,3.7,1.6,3.7,3C157,103.9,155.9,105.1,153.3,105.1L153.3,105.1z"/>
		<polygon id="XMLID_5_" class="st3" points="166.7,119.9 187.9,119.9 187.9,114.4 173.2,114.4 173.2,109.1 187.5,109.1 
			187.5,104.1 173.2,104.1 173.2,99.2 187.9,99.2 187.9,93.5 166.7,93.5 166.7,119.9 		"/>
	</g>
	<g>
		<path class="st4" d="M110.2,95.6L96.6,65.3H79.4v43.6L59.9,65.3h-7.3h-7.5l-19.5,45.4h11.8l4-10.3h11.3h11l4.3,10.3h22.5V76.8
			l14.8,33.9h10.3l15-33.1v33.1h11V65.3h-17.8L110.2,95.6L110.2,95.6z M52.6,90.6h-6.8l6.8-15.8v0.5l6.8,15.3H52.6L52.6,90.6z"/>
		<path class="st5" d="M210.7,87.2l8-8.5l11.7-13.3h-13.9L204,79.2l-12.5-13.8h-43.8v44.9h42.5l13.3-14.8l13,15h13.9l-11.7-13.8
			L210.7,87.2z M184.2,101h-25.3v-9h24.5v-8.5h-24.5v-8.3h25.3l12.5,12L184.2,101z"/>
	</g>
</g>
</svg>
