<?xml version="1.0" encoding="utf-8"?>
<!-- Generator: Adobe Illustrator 19.0.0, SVG Export Plug-In . SVG Version: 6.00 Build 0)  -->
<svg version="1.1" id="Layer_1" xmlns="http://www.w3.org/2000/svg" xmlns:xlink="http://www.w3.org/1999/xlink" x="0px" y="0px"
	 viewBox="0 0 256 176" style="enable-background:new 0 0 256 176;" xml:space="preserve">
<style type="text/css">
	.st0{fill:#282A67;}
	.st1{fill:#ED2026;}
	.st2{fill:#FBA81D;}
</style>
<g id="master">
	<path id="XMLID_4_" class="st0" d="M241.4,176H14.6C6.5,176,0,169.4,0,161.3V14.7C0,6.6,6.5,0,14.6,0h226.7
		c8.1,0,14.6,6.6,14.6,14.7v146.7C256,169.4,249.5,176,241.4,176z"/>
	<g id="XMLID_7_">
		<path id="XMLID_3_" class="st1" d="M128,51.7C117.9,40.3,103.3,33,86.9,33C56.6,33,32,57.6,32,88c0,30.4,24.6,55,54.9,55
			c16.4,0,31.1-7.3,41.1-18.7c-8.5-9.7-13.7-22.4-13.7-36.3S119.5,61.4,128,51.7z"/>
		<path id="XMLID_2_" class="st1" d="M128,51.7c-8.5,9.7-13.7,22.4-13.7,36.3s5.2,26.6,13.7,36.3c8.5-9.7,13.7-22.4,13.7-36.3
			S136.5,61.4,128,51.7z"/>
	</g>
	<path id="XMLID_1_" class="st2" d="M169.1,33c-16.4,0-31.1,7.3-41.1,18.7c-2.4,2.7-4.5,5.7-6.3,8.8h12.6c2,3.4,3.5,7.1,4.8,11
		h-22.2c-1.1,3.5-1.9,7.2-2.3,11h26.8c0.2,1.8,0.4,3.6,0.4,5.5c0,1.9-0.1,3.7-0.3,5.5h-26.9c0.4,3.8,1.2,7.5,2.3,11h22.3
		c-1.2,3.9-2.9,7.5-4.9,11h-12.5c1.8,3.1,3.9,6.1,6.3,8.8c10.1,11.4,24.7,18.7,41.1,18.7c30.3,0,54.9-24.6,54.9-55
		C224,57.6,199.4,33,169.1,33z"/>
</g>
</svg>
