<?xml version="1.0" encoding="utf-8"?>
<!-- Generator: Adobe Illustrator 19.0.0, SVG Export Plug-In . SVG Version: 6.00 Build 0)  -->
<svg version="1.1" id="Layer_1" xmlns="http://www.w3.org/2000/svg" xmlns:xlink="http://www.w3.org/1999/xlink" x="0px" y="0px"
	 viewBox="0 0 256 176" style="enable-background:new 0 0 256 176;" xml:space="preserve">
<style type="text/css">
	.st0{fill:#005197;}
	.st1{fill:#F4A51D;}
	.st2{fill:#0A5395;}
	.st3{fill:#F3A527;}
</style>
<g id="visa">
	<g id="XMLID_12_">
		<polygon id="XMLID_8_" class="st0" points="94.1,118.6 104.5,57.6 121,57.6 110.7,118.6 		"/>
		<path id="XMLID_7_" class="st0" d="M170.8,59.1c-3.3-1.2-8.4-2.6-14.9-2.6c-16.4,0-27.9,8.3-28,20.1c-0.1,8.8,8.2,13.7,14.5,16.6
			c6.5,3,8.6,4.9,8.6,7.6c0,4.1-5.2,6-9.9,6c-6.6,0-10.2-0.9-15.6-3.2l-2.1-1l-2.3,13.7c3.9,1.7,11,3.2,18.5,3.3
			c17.4,0,28.7-8.2,28.9-20.8c0.1-6.9-4.4-12.2-13.9-16.6c-5.8-2.8-9.3-4.7-9.3-7.6c0-2.5,3-5.2,9.5-5.2c5.4-0.1,9.3,1.1,12.4,2.3
			l1.5,0.7L170.8,59.1"/>
		<path id="XMLID_15_" class="st0" d="M213.3,57.6h-12.8c-4,0-6.9,1.1-8.7,5.1l-24.6,55.9h17.4c0,0,2.8-7.5,3.5-9.2
			c1.9,0,18.8,0,21.2,0c0.5,2.1,2,9.1,2,9.1h15.4L213.3,57.6 M192.9,97c1.4-3.5,6.6-17,6.6-17c-0.1,0.2,1.4-3.5,2.2-5.8l1.1,5.3
			c0,0,3.2,14.6,3.8,17.6H192.9z"/>
		<path id="XMLID_4_" class="st0" d="M80.2,57.6L64,99.2l-1.7-8.5c-3-9.7-12.4-20.3-23-25.6l14.8,53.3l17.5,0l26.1-60.9H80.2"/>
		<path id="XMLID_3_" class="st1" d="M48.9,57.6H22.2l-0.2,1.3c20.8,5,34.6,17.2,40.3,31.9l-5.8-28C55.4,58.9,52.5,57.7,48.9,57.6"
			/>
	</g>
	<path id="XMLID_2_" class="st2" d="M256,36.7H0v-22C0,6.6,6.5,0,14.6,0h226.7c8.1,0,14.6,6.6,14.6,14.7V36.7z"/>
	<path id="XMLID_1_" class="st3" d="M0,139.3h256v22c0,8.1-6.5,14.7-14.6,14.7H14.6C6.5,176,0,169.4,0,161.3L0,139.3z"/>
</g>
</svg>
