<?xml version="1.0" standalone="no"?>
<!DOCTYPE svg PUBLIC "-//W3C//DTD SVG 20010904//EN"
 "http://www.w3.org/TR/2001/REC-SVG-20010904/DTD/svg10.dtd">
<svg version="1.0" xmlns="http://www.w3.org/2000/svg"
 width="300.000000pt" height="300.000000pt" viewBox="0 0 300.000000 300.000000"
 preserveAspectRatio="xMidYMid meet">
<metadata>
Created by potrace 1.14, written by Peter Selinger 2001-2017
</metadata>
<g transform="translate(0.000000,300.000000) scale(0.100000,-0.100000)"
fill="#000000" stroke="none">
<path d="M452 2610 c-33 -15 -47 -29 -62 -62 -19 -41 -20 -72 -20 -768 0 -808
-3 -769 69 -817 l34 -23 1027 0 1027 0 34 23 c72 48 69 9 69 817 0 696 -1 727
-20 768 -15 33 -29 47 -62 62 -42 19 -74 20 -1048 20 -974 0 -1006 -1 -1048
-20z m2036 -757 l2 -633 -990 0 -990 0 0 628 c0 346 3 632 7 635 3 4 448 6
987 5 l981 -3 3 -632z m-943 -728 c30 -29 32 -68 5 -95 -41 -41 -120 -12 -120
45 0 31 41 75 70 75 12 0 32 -11 45 -25z"/>
<path d="M2133 2320 c-40 -24 -63 -67 -63 -118 l0 -39 -234 -142 -234 -142
-34 21 c-59 36 -132 21 -177 -36 l-20 -26 -203 42 c-112 23 -210 44 -219 46
-9 3 -19 18 -23 35 -21 106 -181 131 -244 39 -34 -51 -28 -129 15 -171 55 -55
140 -55 197 0 18 17 36 31 41 31 6 0 103 -18 216 -41 l207 -42 11 -38 c26 -86
133 -119 216 -65 30 20 57 80 53 118 -3 31 0 33 231 174 l234 142 31 -19 c90
-55 206 11 206 116 0 106 -116 171 -207 115z m140 -62 c44 -59 4 -142 -68
-142 -77 0 -118 93 -66 148 40 42 100 39 134 -6z m-1432 -258 c33 -18 52 -66
39 -104 -11 -34 -54 -66 -89 -66 -26 0 -79 49 -82 75 -3 41 2 57 26 80 26 27
72 33 106 15z m723 -161 c49 -58 20 -134 -56 -146 -32 -5 -41 -1 -68 25 -38
39 -40 79 -4 121 20 25 34 31 64 31 30 0 44 -6 64 -31z"/>
<path d="M1907 1901 c-181 -110 -192 -118 -198 -151 -22 -133 -165 -215 -287
-165 -44 19 -77 48 -107 95 -22 35 -23 35 -188 68 l-165 32 -38 -25 c-21 -14
-57 -31 -81 -37 l-43 -10 0 -169 0 -169 700 0 700 0 0 308 0 308 -50 15 -51
16 -192 -116z"/>
<path d="M1218 728 l-3 -73 -95 -5 c-105 -6 -132 -16 -160 -63 -39 -63 -17
-152 47 -194 25 -17 61 -18 493 -18 432 0 468 1 493 18 64 42 86 131 47 194
-28 47 -55 57 -160 63 l-95 5 -3 73 -3 72 -279 0 -279 0 -3 -72z"/>
</g>
</svg>
