<svg xmlns="http://www.w3.org/2000/svg" id="Capa_1" x="0" y="0" version="1.1" viewBox="26 -96 512 512" xml:space="preserve">
  <style>
    .st0{fill:#c3dafe}.st1{fill:#fff}.st2{fill:#667eea}
  </style>
  <path d="M420.7 0h-64c-11.8 0-21.3-9.6-21.3-21.3v-64L420.7 0z" class="st0"/>
  <path d="M378 0h-21.3c-11.8 0-21.3-9.6-21.3-21.3v-64H58c-11.8 0-21.3 9.6-21.3 21.3v448c0 11.8 9.6 21.3 21.3 21.3h341.3c11.8 0 21.3-9.6 21.3-21.3V0H378zM463.3 277.3h64V320h-64v-42.7z" class="st1"/>
  <path d="M463.3 277.3V320H250l-32-21.3 32-21.3 213.3-.1zM111.3 74.7H346c5.9 0 10.7 4.8 10.7 10.7v64c0 5.9-4.8 10.7-10.7 10.7H111.3c-5.9 0-10.7-4.8-10.7-10.7v-64c.1-6 4.8-10.7 10.7-10.7z" class="st0"/>
  <g>
    <path d="M90-32h106.7v21.3H90V-32zM90 10.7h21.3V32H90V10.7zM132.7 10.7H154V32h-21.3V10.7z" class="st2"/>
    <path d="M410 384c0 5.9-4.8 10.7-10.7 10.7H58c-5.9 0-10.7-4.8-10.7-10.7V-64c0-5.9 4.8-10.7 10.7-10.7h266.7v53.3c0 17.7 14.3 32 32 32H378v-21.3h-21.3c-5.9 0-10.7-4.8-10.7-10.7v-38.3l64 64v198.3h21.3V0c0-2.8-1.1-5.5-3.1-7.5l-85.3-85.3c-2-2-4.7-3.1-7.5-3.1H58c-17.7 0-32 14.3-32 32v448c0 17.7 14.3 32 32 32h341.3c17.7 0 32-14.3 32-32v-21.3H410V384z" class="st2"/>
    <path d="M527.3 266.7H506v-21.3c0-5.9-4.8-10.7-10.7-10.7H378V256h106.7v10.7H250c-2.1 0-4.2.6-5.9 1.8L214.8 288h-18.1v21.3h18.1l29.3 19.5c1.7 1.2 3.8 1.8 5.9 1.8h277.3c5.9 0 10.7-4.8 10.7-10.7v-42.7c0-5.8-4.8-10.5-10.7-10.5zm-290.1 32l16-10.7h199.5v21.3H253.2l-16-10.6zm279.5 10.6H474V288h42.7v21.3zM164.7 202.7h106.7V224H164.7v-21.3zM90 245.3h106.7v21.3H90v-21.3zM122 202.7h21.3V224H122v-21.3zM90 288h74.7v21.3H90V288zM367.3 149.3v-64c0-11.8-9.6-21.3-21.3-21.3H111.3C99.6 64 90 73.6 90 85.3v64c0 11.8 9.6 21.3 21.3 21.3H346c11.8.1 21.3-9.5 21.3-21.3zm-256-64H346v64H111.3v-64z" class="st2"/>
  </g>
</svg>