<svg xmlns="http://www.w3.org/2000/svg" id="Capa_1" x="0" y="0" version="1.1" viewBox="26 -96 512 512" xml:space="preserve">
  <style>
    .st0{fill:#fff}.st2{fill:#667eea}
  </style>
  <circle cx="506" cy="373.3" r="21.3" class="st0"/>
  <circle cx="58" cy="373.3" r="21.3" class="st0"/>
  <path d="M324.7 373.3v21.3h-64V352h64v21.3zM474-.1c0 10.5.1 32.1.1 32.1H271.3v-42.7h192.1c5.7-.1 10.4 4.4 10.6 10.1v.5z" class="st0"/>
  <path fill="#c3dafe" d="M271.3 32H506c11.8 0 21.3 9.6 21.3 21.3v181.3c.2 11.5-8.9 21.1-20.4 21.3H58c-11.5.2-21.1-8.9-21.3-20.4V-53.4c0-11.8 9.6-21.3 21.3-21.3h192c11.8 0 21.3 9.6 21.3 21.3V32z"/>
  <g>
    <path d="M506 21.3h-21.3c-.1-7-.1-15.8-.1-21.4.2-11.5-8.9-21-20.3-21.2H282v-32c0-17.7-14.3-32-32-32H58c-17.7 0-32 14.3-32 32v288c-.5 17.2 13 31.5 30.2 32h215c5.4-.6 10.2 3.3 10.8 8.7.1.7.1 1.3 0 2v64h-21.3c-5.9 0-10.7 4.8-10.7 10.7v10.7H111.3V384H250v10.7c0 5.9 4.8 10.7 10.7 10.7h64c5.9 0 10.7-4.8 10.7-10.7V384h117.3v-21.3H335.3V352c0-5.9-4.8-10.7-10.7-10.7h-21.3v-64c.5-17.2-13-31.5-30.2-32H58c-5.4.5-10.1-3.4-10.7-8.8-.1-.6-.1-1.3 0-1.9v-288C47.3-59.2 52.1-64 58-64h192c5.9 0 10.7 4.8 10.7 10.7v74.7H122v21.3h384c5.9 0 10.7 4.8 10.7 10.7v181.2c.6 5.4-3.3 10.2-8.7 10.8-.6.1-1.3.1-2 0H324.7v21.3H506c17.2.5 31.5-13 32-30.2V53.3c0-17.7-14.3-32-32-32zM314 384h-42.7v-21.3H314V384zM282 0l181.3.2c0 5.6 0 14.3.1 21.1H282V0zM506 341.3c-17.7 0-32 14.3-32 32s14.3 32 32 32 32-14.3 32-32-14.3-32-32-32zm0 42.7c-5.9 0-10.7-4.8-10.7-10.7s4.8-10.7 10.7-10.7 10.7 4.8 10.7 10.7c0 5.9-4.8 10.7-10.7 10.7zM58 341.3c-17.7 0-32 14.3-32 32s14.3 32 32 32 32-14.3 32-32-14.3-32-32-32zm0 42.7c-5.9 0-10.7-4.8-10.7-10.7s4.8-10.7 10.7-10.7 10.7 4.8 10.7 10.7c0 5.9-4.8 10.7-10.7 10.7z" class="st2"/>
    <path d="M495.3 117.3V74.7c0-5.9-4.8-10.7-10.7-10.7H442v21.3h32v32h21.3z" class="st2"/>
  </g>
</svg>