<?xml version="1.0" encoding="utf-8"?>
<!-- Generator: Adobe Illustrator 19.0.0, SVG Export Plug-In . SVG Version: 6.00 Build 0)  -->
<svg version="1.1" id="Layer_1" xmlns="http://www.w3.org/2000/svg" xmlns:xlink="http://www.w3.org/1999/xlink" x="0px" y="0px"
	 viewBox="26 -96 512 512" style="enable-background:new 26 -96 512 512;" xml:space="preserve">
<style type="text/css">
	.st0{fill:#FFFFFF;}
	.st1{fill:#C3DAFE;}
	.st2{fill:#667EEA;}
</style>
<g>
	<g>
		<path class="st0" d="M346,85.3v32h-42.7v-32c0-5.9,4.8-10.7,10.7-10.7h21.3C341.2,74.7,346,79.4,346,85.3L346,85.3z M132.7,85.3
			v32H90v-32c0-5.9,4.8-10.7,10.7-10.7H122C127.9,74.7,132.7,79.4,132.7,85.3L132.7,85.3z M463.3,21.3v384h-42.7L399.3,384V21.3
			H463.3z"/>
	</g>
	<g>
		<path class="st1" d="M111.3,74.7h-10.7c-5.9,0-10.7,4.8-10.7,10.7v32h42.7v-32c0-5.9-4.8-10.7-10.7-10.7L111.3,74.7L111.3,74.7z
			 M324.7,74.7H314c-5.9,0-10.7,4.8-10.7,10.7v32H346v-32c0-5.9-4.8-10.7-10.7-10.7L324.7,74.7L324.7,74.7z M324.7,21.3h74.7V384
			L378,405.3H58c-11.8,0-21.3-9.6-21.3-21.3V21.3C36.7,21.3,324.7,21.3,324.7,21.3z"/>
		<path class="st1" d="M324.7,309.3h42.7V352h-42.7V309.3z M442,181.3v64h-85.3v-96H442V181.3z"/>
	</g>
	<path class="st0" d="M527.3,170.7V384c0,11.8-9.6,21.3-21.3,21.3H292.7c-11.8,0-21.3-9.6-21.3-21.3V170.7
		c0-11.8,9.6-21.3,21.3-21.3h64v96H442v-96h64C517.8,149.4,527.3,158.9,527.3,170.7z M367.3,352v-42.7h-42.7V352H367.3z"/>
	<path class="st2" d="M47.3,384V32h53.3v32c-11.8,0-21.3,9.6-21.3,21.3v32c0,5.9,4.8,10.7,10.7,10.7h42.7c5.9,0,10.7-4.8,10.7-10.7
		v-32c0-11.8-9.6-21.3-21.3-21.3V32h192v32c-11.8,0-21.3,9.6-21.3,21.3v32H314v-32h21.3v32h21.3v-32c0-11.8-9.6-21.3-21.3-21.3V32
		h53.3v74.7H410V21.3c0-5.9-4.8-10.7-10.7-10.7h-64V-64c0-17.7-14.3-32-32-32H132.7c-17.7,0-32,14.3-32,32v74.7h-64
		c-5.9,0-10.7,4.8-10.7,10.7V384c0,17.7,14.3,32,32,32h170.7v-21.3H58C52.1,394.7,47.3,389.9,47.3,384z M122,106.7h-21.3V85.3H122
		V106.7L122,106.7z M122-64c0-5.9,4.8-10.7,10.7-10.7h170.7c5.9,0,10.7,4.8,10.7,10.7v74.7H122V-64z M452.7,106.7H474V21.3
		c0-5.9-4.8-10.7-10.7-10.7h-32V32h21.3L452.7,106.7L452.7,106.7z"/>
	<path class="st2" d="M388.7-64v53.3H410V-64c0-17.7-14.3-32-32-32h-21.3v21.3H378C383.9-74.7,388.7-69.9,388.7-64z M506,138.7
		H292.7c-17.7,0-32,14.3-32,32V384c0,17.7,14.3,32,32,32H506c17.7,0,32-14.3,32-32V170.7C538,153,523.7,138.7,506,138.7L506,138.7z
		 M516.7,384c0,5.9-4.8,10.7-10.7,10.7H292.7c-5.9,0-10.7-4.8-10.7-10.7V170.7c0-5.9,4.8-10.7,10.7-10.7H506
		c5.9,0,10.7,4.8,10.7,10.7V384z"/>
	<path class="st2" d="M356.7,256H442c5.9,0,10.7-4.8,10.7-10.7v-64h-21.3v53.3h-64v-53.3H346v64C346,251.2,350.8,256,356.7,256z
		 M367.3,298.7h-42.7c-5.9,0-10.7,4.8-10.7,10.7V352c0,5.9,4.8,10.7,10.7,10.7h42.7c5.9,0,10.7-4.8,10.7-10.7v-42.7
		C378,303.4,373.2,298.7,367.3,298.7z M356.7,341.3h-21.3V320h21.3V341.3z M399.3,298.7H474V320h-74.7V298.7z M399.3,341.3H442v21.3
		h-42.7V341.3z"/>
</g>
</svg>
