<svg xmlns="http://www.w3.org/2000/svg" id="Capa_1" x="0" y="0" version="1.1" viewBox="26 -96 512 512" xml:space="preserve">
  <style>
    .st0{fill:#fff}.st1{fill:#c3dafe}.st2{fill:#667eea}
  </style>
  <circle cx="282" cy="266.7" r="96" class="st0"/>
  <path d="M484.7 224v85.3c-29.5 0-53.3 23.9-53.3 53.3H282c53 0 96-43 96-96s-43-96-96-96h149.3c0 29.5 23.9 53.4 53.4 53.4zM186 170.7h96c-53 0-96 43-96 96s43 96 96 96H132.7c0-29.5-23.9-53.3-53.3-53.3V224c29.5 0 53.3-23.9 53.3-53.3H186z" class="st0"/>
  <path d="M36.7 384V149.3c0-11.8 9.6-21.3 21.3-21.3h448c11.8 0 21.3 9.6 21.3 21.3V384c0 11.8-9.6 21.3-21.3 21.3H58c-11.8 0-21.3-9.5-21.3-21.3zm448-74.7V224c-29.5 0-53.3-23.9-53.3-53.3H132.7c0 29.5-23.9 53.3-53.3 53.3v85.3c29.5 0 53.3 23.9 53.3 53.3h298.7c-.1-29.4 23.8-53.3 53.3-53.3z" class="st1"/>
  <circle cx="356.7" cy="85.3" r="170.7" class="st0"/>
  <path d="M356.7-85.3C262.4-85.3 186-8.9 186 85.3h170.7V-85.3z" class="st1"/>
  <path d="M58-21.3h85.3v42.7H58v-42.7z" class="st0"/>
  <g>
    <path d="M516.7 384c0 5.9-4.8 10.7-10.7 10.7H58c-5.9 0-10.7-4.8-10.7-10.7V149.3c0-5.9 4.8-10.7 10.7-10.7h96v-21.3H58c-17.7 0-32 14.3-32 32V384c0 17.7 14.3 32 32 32h448c17.7 0 32-14.3 32-32V202.7h-21.3V384z" class="st2"/>
    <path d="M142.4 181.3h22.2V160h-32c-5.9 0-10.7 4.8-10.7 10.7 0 23.6-19.1 42.7-42.7 42.7-5.9 0-10.7 4.8-10.7 10.7v85.3c0 5.9 4.8 10.7 10.7 10.7 23.6 0 42.7 19.1 42.7 42.7 0 5.9 4.8 10.7 10.7 10.7H186V352h-43.6c-4.6-26.8-25.6-47.9-52.4-52.4v-65.8c26.8-4.6 47.9-25.6 52.4-52.5zM495.3 256H474v43.6c-26.8 4.6-47.9 25.6-52.4 52.4H378v21.3h53.3c5.9 0 10.7-4.8 10.7-10.7 0-23.6 19.1-42.7 42.7-42.7 5.9 0 10.7-4.8 10.7-10.7l-.1-53.2zM68.7 160H90v21.3H68.7V160zM474 352h21.3v21.3H474V352zM68.7 352H90v21.3H68.7V352z" class="st2"/>
    <path d="M282 373.3c40.4.1 77.3-22.7 95.3-58.8l-19.1-9.6c-21.1 42.1-72.4 59.2-114.5 38.1s-59.2-72.4-38.1-114.5l-19.1-9.6c-7.5 14.8-11.3 31.2-11.3 47.8.2 58.8 47.9 106.6 106.8 106.6zM356.7 266.7c100.1 0 181.3-81.2 181.3-181.4C537.9-14.9 456.7-96 356.6-96c-31.8 0-63 8.4-90.6 24.3l10.7 18.5c21.2-12.2 44.9-19.4 69.3-21v149H197.2c1.1-16.9 4.8-33.6 11.1-49.3l-19.8-8c-37.5 92.8 7.4 198.5 100.4 236 21.5 8.7 44.5 13.2 67.8 13.2zm0-170.7c5.9 0 10.7-4.8 10.7-10.7V-74.1c88.1 5.8 154.8 82 149 170.1-5.8 88.1-82 154.8-170.1 149-80-5.3-143.7-69-149-149h159.4z" class="st2"/>
    <path d="M271.3 21.3h21.3v-32c.2-11.5-8.9-21.1-20.4-21.3h-96.9v21.3h96v32zM58 32h85.3c5.9 0 10.7-4.8 10.7-10.7v-42.7c0-5.9-4.8-10.7-10.7-10.7H58c-5.9 0-10.7 4.8-10.7 10.7v42.7C47.3 27.2 52.1 32 58 32zm10.7-42.7h64v21.3h-64v-21.3zM47.3 53.3H154v21.3H47.3V53.3z" class="st2"/>
  </g>
</svg>