<svg xmlns="http://www.w3.org/2000/svg" id="Capa_1" x="0" y="0" version="1.1" viewBox="26 -96 512 512" xml:space="preserve">
  <style>
    .st0{fill:#fff}.st2{fill:#667eea}
  </style>
  <path d="M388.5 136.7c9.8-5.7 20.9-8.8 32.2-8.7 35.3 0 64 28.7 64 64v32c0 27.1-17.1 51.3-42.7 60.3v14.4c17.3 8.2 35.1 15.4 53.3 21.3 32 10.7 32 32 32 32v64H314v-64s0-21.3 32-32c18.2-6 36-13.1 53.3-21.3v-14.4c-25.6-9-42.7-33.2-42.7-60.3v-32c.1-22.8 12.2-43.8 31.9-55.3zM250 405.3V416H36.7v-64s0-21.3 32-32c18.2-6 36-13.1 53.3-21.3v-14.4c-25.6-9-42.7-33.2-42.7-60.3v-32c0-35.3 28.7-64 64-64 35.3.1 63.9 28.7 64 64v32c0 27.1-17.1 51.3-42.7 60.3v14.4C182 306.9 199.8 314 218 320c32 10.7 32 32 32 32v53.3z" class="st0"/>
  <path fill="#c3dafe" d="M399.3 284.3v14.4C382 306.9 364.2 314 346 320c-32 10.7-32 32-32 32v53.3h-64V352s0-21.3-32-32c-18.2-6-36-13.1-53.3-21.3v-14.4c25.6-9 42.7-33.2 42.7-60.3v-32c0-22.8-12.1-43.8-31.8-55.3.9-5.4 5.5-21.3 31.8-30.1 18.2-6 36-13.1 53.3-21.3V70.9c-25.6-9-42.7-33.2-42.7-60.3v-32c0-35.3 28.7-64 64-64s64 28.7 64 64v32c0 27.1-17.1 51.3-42.7 60.3v14.4c17.3 8.2 35.1 15.4 53.3 21.3 26.2 8.7 30.9 24.6 31.8 30.1-19.7 11.5-31.8 32.5-31.8 55.3v32c.1 27.1 17.2 51.3 42.7 60.3z"/>
  <g>
    <path d="M498.7 309.9c-15.6-5.2-31-11.2-46-18v-.5c26-12.3 42.6-38.6 42.7-67.4v-32c.2-41.1-33-74.5-74-74.7-9.2 0-18.3 1.6-26.9 4.9-7.8-12.7-20.1-21.8-34.4-25.7-15.6-5.2-31-11.2-46-18V78c26-12.3 42.6-38.6 42.7-67.4v-32c0-41.2-33.4-74.7-74.7-74.7s-74.7 33.4-74.7 74.7v32c0 28.8 16.6 55 42.7 67.4v.5c-15 6.8-30.4 12.8-46 18-14.3 3.8-26.7 13-34.4 25.7-38.3-14.7-81.3 4.5-96 42.9-3.3 8.6-4.9 17.7-4.9 26.9v32c0 28.8 16.6 55 42.7 67.4v.5c-15 6.8-30.4 12.8-46 18C26.4 322.8 26 350.8 26 352v64h21.3v-63.7c0-.6 1.1-14.3 24.7-22.2 18.7-6.1 37-13.4 54.7-21.9 3.6-1.8 5.9-5.5 5.9-9.6v-14.4c0-4.5-2.9-8.6-7.1-10.1C104.3 266.7 90 246.6 90 224v-32c0-29.4 23.9-53.3 53.3-53.3 9.4 0 18.7 2.5 26.8 7.3 16.4 9.6 26.4 27.1 26.5 46v32c0 22.6-14.3 42.7-35.5 50.2-4.3 1.5-7.1 5.5-7.1 10.1v14.4c0 4.1 2.3 7.8 5.9 9.6 17.8 8.5 36 15.8 54.7 21.9 23.6 7.8 24.7 21.5 24.7 21.8v64h21.3v-64c0-1.2-.4-29.2-39.3-42.1-15.6-5.2-31-11.2-46-18v-.5c26-12.3 42.6-38.6 42.7-67.4v-32c-.1-23.4-11.1-45.4-29.7-59.5 5.2-7.9 13.2-13.5 22.4-15.7 18.7-6.1 37-13.4 54.7-21.9 3.6-1.8 5.9-5.5 5.9-9.6V70.9c0-4.5-2.9-8.6-7.1-10.1-21.3-7.5-35.5-27.6-35.5-50.2v-32c0-29.5 23.9-53.3 53.3-53.3s53.3 23.9 53.3 53.3v32c0 22.6-14.3 42.7-35.5 50.2-4.3 1.5-7.1 5.5-7.1 10.1v14.4c0 4 2.3 7.7 5.9 9.5 17.8 8.5 36 15.8 54.7 21.9 9.2 2.2 17.2 7.9 22.4 15.8-18.6 14.1-29.6 36.1-29.7 59.4v32c0 28.8 16.6 55 42.7 67.4v.5c-15 6.8-30.4 12.8-46 18-38.8 12.9-39.3 40.9-39.3 42.1v64h21.3v-63.7c0-.6 1.1-14.3 24.7-22.2 18.7-6.1 37-13.4 54.7-21.9 3.6-1.8 5.9-5.5 5.9-9.6v-14.4c0-4.5-2.9-8.6-7.1-10.1-21.3-7.5-35.5-27.6-35.5-50.2v-32c.1-19 10.2-36.5 26.5-46.1 8.1-4.8 17.4-7.3 26.8-7.3 29.4 0 53.3 23.9 53.3 53.3v32c0 22.6-14.3 42.7-35.5 50.2-4.3 1.5-7.1 5.5-7.1 10.1v14.4c0 4.1 2.3 7.8 5.9 9.6 17.8 8.5 36 15.8 54.7 21.9 23.6 7.8 24.7 21.5 24.7 21.8v64H538v-64c0-.9-.4-28.9-39.3-41.8z" class="st2"/>
    <path d="M271.3 192h21.3v21.3h-21.3V192zM271.3 149.3h21.3v21.3h-21.3v-21.3zM271.3 234.7h21.3V256h-21.3v-21.3zM186 362.7h21.3V416H186v-53.3zM79.3 362.7h21.3V416H79.3v-53.3zM356.7 362.7H378V416h-21.3v-53.3zM463.3 362.7h21.3V416h-21.3v-53.3z" class="st2"/>
  </g>
</svg>