<?xml version="1.0" encoding="UTF-8"?>
<svg enable-background="new 128 -168 512 512" version="1.1" viewBox="128 -168 512 512" xml:space="preserve" xmlns="http://www.w3.org/2000/svg">
  <style type="text/css">.st0{fill:#EFEFEF;}
    .st1{fill:#FFCB28;}
    .st2{fill:#44B3E6;}
    .st3{fill:#F1F2F2;}</style>
  <path class="st0" d="m600.3-12.5l-358.4-95.9c-16.7-4.4-33.9 5.5-38.4 22.2l-44.2 165.4-14.7 55c-4.5 16.7 5.5 33.9 22.2 38.4l358.4 95.8c16.7 4.5 33.9-5.5 38.4-22.2l14.7-55 44.2-165.3c4.5-16.8-5.5-34-22.2-38.4z"/>
  <path class="st1" d="M601-8.5c0-17.3-13.7-31.5-31-31.5H199c-17.3,0-31,14.2-31,31.5V163h433V-8.5z"/>
  <path class="st2" d="m199 251h371c17.3 0 31-14.1 31-31.4v-56.6h-433v56.6c0 17.3 13.7 31.4 31 31.4z"/>
  <path class="st0" d="m417 134c0 2.2-1.8 4-4 4h-34c-2.2 0-4-1.8-4-4v-10c0-2.2 1.8-4 4-4h34c2.2 0 4 1.8 4 4v10z"/>
  <path class="st0" d="m490 134c0 2.2-1.8 4-4 4h-34c-2.2 0-4-1.8-4-4v-10c0-2.2 1.8-4 4-4h34c2.2 0 4 1.8 4 4v10z"/>
  <path class="st0" d="m562 134c0 2.2-1.8 4-4 4h-34c-2.2 0-4-1.8-4-4v-10c0-2.2 1.8-4 4-4h34c2.2 0 4 1.8 4 4v10z"/>
  <path class="st0" d="m452.1 6l-28.2 81h-20.9l-27.8-81h19.8l17.1 56.9c0.9 3.1 1.5 5.1 1.7 8.1h0.3c0.3-3 0.9-5.3 1.8-8.3l16.9-56.7h19.3z"/>
  <path class="st0" d="M483,87h-18V6h18V87z"/>
  <path class="st0" d="m520 59v28h-18v-81h28.6c20.6 0 30.9 8.5 30.9 25.8 0 8.2-3 14.7-8.9 19.7-5.9 5.1-13.8 7.4-23.7 7.4h-8.9v0.1zm0-39v25h7.4c9.8 0 14.7-4.1 14.7-12.6 0-8.4-4.9-12.4-14.7-12.4h-7.4z"/>
  <path class="st3" d="m516.9 194v-12.6h4.6c1.4 0 2.5 0.3 3.2 0.8s1.1 1.2 1.1 2.2c0 0.7-0.2 1.3-0.7 1.8s-1 0.9-1.8 1.1c0.9 0.1 1.6 0.4 2.1 1s0.8 1.2 0.8 2c0 1.2-0.4 2.1-1.2 2.7-0.8 0.7-2 1-3.4 1h-4.7zm2.9-10.5v3h1.2c0.6 0 1-0.1 1.4-0.4 0.3-0.3 0.5-0.7 0.5-1.2 0-0.9-0.7-1.4-2.1-1.4h-1zm0 5.1v3.3h1.5c0.7 0 1.2-0.2 1.5-0.5 0.4-0.3 0.6-0.7 0.6-1.2s-0.2-0.9-0.5-1.2c-0.4-0.3-0.9-0.4-1.5-0.4h-1.6z"/>
  <path class="st3" d="m539.1 194h-3.3l-2-3.2c-0.1-0.2-0.3-0.5-0.4-0.7s-0.3-0.4-0.4-0.5-0.3-0.2-0.4-0.3c-0.2-0.1-0.3-0.1-0.5-0.1h-0.8v4.8h-2.8v-12.6h4.5c3.1 0 4.6 1.1 4.6 3.4 0 0.4-0.1 0.8-0.2 1.2s-0.3 0.7-0.6 1-0.5 0.6-0.9 0.8-0.7 0.4-1.2 0.5c0.2 0.1 0.4 0.2 0.5 0.3 0.2 0.1 0.3 0.3 0.5 0.5s0.3 0.4 0.5 0.6c0.1 0.2 0.3 0.4 0.4 0.6l2.5 3.7zm-7.8-10.5v3.5h1.2c0.6 0 1.1-0.2 1.5-0.5 0.4-0.4 0.6-0.8 0.6-1.3 0-1.1-0.7-1.7-2-1.7h-1.3z"/>
  <path class="st3" d="m545.4 194.2c-1.8 0-3.3-0.6-4.4-1.8s-1.7-2.7-1.7-4.6c0-2 0.6-3.6 1.7-4.8s2.7-1.8 4.6-1.8c1.8 0 3.3 0.6 4.4 1.8s1.7 2.7 1.7 4.7-0.6 3.6-1.7 4.8c-1.3 1.1-2.8 1.7-4.6 1.7zm0.1-10.6c-1 0-1.8 0.4-2.4 1.1s-0.9 1.7-0.9 3c0 1.2 0.3 2.2 0.9 3s1.4 1.1 2.3 1.1c1 0 1.8-0.4 2.3-1.1s0.9-1.7 0.9-2.9c0-1.3-0.3-2.3-0.8-3s-1.3-1.2-2.3-1.2z"/>
  <path class="st3" d="m565 194h-2.9l-5.2-7.9c-0.3-0.5-0.5-0.8-0.6-1 0 0.4 0.1 1.1 0.1 2v6.9h-2.7v-12.6h3.1l5 7.7c0.2 0.3 0.4 0.7 0.6 1 0-0.3-0.1-0.9-0.1-1.7v-7h2.7v12.6z"/>
  <path class="st3" d="m577 194h-10.2v-1.6l6.5-8.7h-6v-2.3h9.7v1.6l-6.3 8.7h6.3v2.3z"/>
  <path class="st3" d="m586.4 194h-7.6v-12.6h7.3v2.3h-4.4v2.8h4.1v2.3h-4.1v2.9h4.7v2.3z"/>
  <path class="st0" d="m321.5 127.6c-19.9-6.5-28.1-14.6-28.1-14.6l-0.7 0.6c-5.9 5.6-12.4 8.8-18.4 8.8h-0.6c-5.9 0-12.5-3.3-18.4-8.8l-0.7-0.6s-8.3 8.1-28.1 14.6c-29.3 11-20.5 55.6-20.5 55.9 0.9 5 1.5 6.7 1.9 6.9 29.5 13.1 102.7 13.1 132.2 0 0.5-0.2 1-1.9 1.9-6.9 0-0.3 8.9-44.7-20.5-55.9z"/>
  <path class="st0" d="m304.8 70.7l-0.2-0.3c-1.7-1.5-1.5-1.4-1.5-1.4s2.9-14.5 0.6-21.4c-3.6-11-25.3-18.3-29.6-19.2 0 0-2.6-0.5-2.8-0.5 0 0-3.4-0.7-7.4 1-2.6 1-16.1 7.1-19.9 18.7-2.3 6.9 0.6 21.4 0.6 21.4s0.1-0.1-1.5 1.4l-0.2 0.3c-1.1 1.3-0.8 5.2 0.4 9.4 1.1 4.1 2.5 5.2 2.9 6.2 3.5 16.4 15.7 30.5 28.1 30.5s23.9-14 27.5-30.5c0.3-1 1.8-2.1 2.9-6.2 0.9-4.2 1.3-8.4 0.1-9.4z"/>
</svg>