<?xml version="1.0" encoding="UTF-8"?>
<svg enable-background="new 128 -168 512 512" version="1.1" viewBox="128 -168 512 512" xml:space="preserve" xmlns="http://www.w3.org/2000/svg">
  <style type="text/css">
    .st0{fill:#EFEFEF;}
    .st1{fill:#36C2D6;}
    .st2{fill:#44B3E6;}</style>
  <path class="st0" d="m600.3-12.5l-358.4-95.9c-16.7-4.4-33.9 5.5-38.4 22.2l-44.2 165.4-14.7 55c-4.5 16.7 5.5 33.9 22.2 38.4l358.4 95.8c16.7 4.5 33.9-5.5 38.4-22.2l14.7-55 44.2-165.3c4.5-16.8-5.5-34-22.2-38.4z"/>
  <path class="st1" d="M601-8.5c0-17.3-13.7-31.5-31-31.5H199c-17.3,0-31,14.2-31,31.5V163h433V-8.5z"/>
  <path class="st2" d="m199 251h371c17.3 0 31-14.1 31-31.4v-56.6h-433v56.6c0 17.3 13.7 31.4 31 31.4z"/>
  <path class="st0" d="m417 134c0 2.2-1.8 4-4 4h-34c-2.2 0-4-1.8-4-4v-10c0-2.2 1.8-4 4-4h34c2.2 0 4 1.8 4 4v10z"/>
  <path class="st0" d="m490 134c0 2.2-1.8 4-4 4h-34c-2.2 0-4-1.8-4-4v-10c0-2.2 1.8-4 4-4h34c2.2 0 4 1.8 4 4v10z"/>
  <path class="st0" d="m562 134c0 2.2-1.8 4-4 4h-34c-2.2 0-4-1.8-4-4v-10c0-2.2 1.8-4 4-4h34c2.2 0 4 1.8 4 4v10z"/>
  <path class="st0" d="m452.1 6l-28.2 81h-20.9l-27.8-81h19.8l17.1 56.9c0.9 3.1 1.5 5.1 1.7 8.1h0.3c0.3-3 0.9-5.3 1.8-8.3l16.9-56.7h19.3z"/>
  <path class="st0" d="M483,87h-18V6h18V87z"/>
  <path class="st0" d="m520 59v28h-18v-81h28.6c20.6 0 30.9 8.5 30.9 25.8 0 8.2-3 14.7-8.9 19.7-5.9 5.1-13.8 7.4-23.7 7.4h-8.9v0.1zm0-39v25h7.4c9.8 0 14.7-4.1 14.7-12.6 0-8.4-4.9-12.4-14.7-12.4h-7.4z"/>
  <path class="st0" d="m513.6 194.2v-12.6h4.5c4.5 0 6.7 2 6.7 6.1 0 2-0.6 3.5-1.8 4.7s-2.8 1.8-4.9 1.8h-4.5zm2.9-10.3v8h1.4c1.2 0 2.2-0.4 2.9-1.1s1.1-1.7 1.1-3c0-1.2-0.3-2.1-1-2.8s-1.7-1-2.9-1h-1.5v-0.1z"/>
  <path class="st0" d="m534.5 194.2h-7.6v-12.6h7.3v2.3h-4.4v2.8h4.1v2.3h-4.1v2.9h4.7v2.3z"/>
  <path class="st0" d="m543.8 183.9h-4.4v3.1h4.1v2.3h-4.1v4.9h-2.8v-12.6h7.3v2.3h-0.1z"/>
  <path class="st0" d="m556 194.2h-3.1l-0.9-2.8h-4.5l-0.9 2.8h-3.1l4.6-12.6h3.4l4.5 12.6zm-4.7-5l-1.3-4.2c-0.1-0.3-0.2-0.7-0.2-1.1h-0.1c0 0.4-0.1 0.7-0.2 1.1l-1.4 4.3 3.2-0.1z"/>
  <path class="st0" d="m567.5 188.7c0 3.8-1.8 5.7-5.3 5.7-3.4 0-5.1-1.8-5.1-5.5v-7.3h2.8v7.3c0 2 0.8 3.1 2.4 3.1s2.3-1 2.3-3v-7.4h2.8v7.1h0.1z"/>
  <path class="st0" d="m577.8 194.2h-7.5v-12.6h2.8v10.3h4.7v2.3z"/>
  <path class="st0" d="m587.1 183.9h-3.6v10.3h-2.8v-10.3h-3.6v-2.3h10v2.3z"/>
  <path class="st0" d="m321.5 127.6c-19.9-6.5-28.1-14.6-28.1-14.6l-0.7 0.6c-5.9 5.6-12.4 8.8-18.4 8.8h-0.6c-5.9 0-12.5-3.3-18.4-8.8l-0.7-0.6s-8.3 8.1-28.1 14.6c-29.3 11-20.5 55.6-20.5 55.9 0.9 5 1.5 6.7 1.9 6.9 29.5 13.1 102.7 13.1 132.2 0 0.5-0.2 1-1.9 1.9-6.9 0-0.3 8.9-44.7-20.5-55.9z"/>
  <path class="st0" d="m304.8 70.7l-0.2-0.3c-1.7-1.5-1.5-1.4-1.5-1.4s2.9-14.5 0.6-21.4c-3.6-11-25.3-18.3-29.6-19.2 0 0-2.6-0.5-2.8-0.5 0 0-3.4-0.7-7.4 1-2.6 1-16.1 7.1-19.9 18.7-2.3 6.9 0.6 21.4 0.6 21.4s0.1-0.1-1.5 1.4l-0.2 0.3c-1.1 1.3-0.8 5.2 0.4 9.4 1.1 4.1 2.5 5.2 2.9 6.2 3.5 16.4 15.7 30.5 28.1 30.5s23.9-14 27.5-30.5c0.3-1 1.8-2.1 2.9-6.2 0.9-4.2 1.3-8.4 0.1-9.4z"/>
</svg>