<?xml version="1.0" encoding="UTF-8"?>
<svg enable-background="new 0 0 60 60" version="1.1" viewBox="0 0 60 60" xml:space="preserve" xmlns="http://www.w3.org/2000/svg">
  <style type="text/css">.st0{fill:#E9EAEB;}
    .st1{fill:none;stroke:#D8D9D8;stroke-width:2;stroke-miterlimit:10;}
    .st2{fill:#FFFFFF;stroke:#2B5183;stroke-width:2;stroke-miterlimit:10;}
    .st3{fill:#30C1E5;stroke:#2B5183;stroke-width:2;stroke-miterlimit:10;}
    .st4{fill:none;stroke:#2B5183;stroke-width:2;stroke-miterlimit:10;}</style>
  <circle class="st0" cx="30" cy="30.9" r="20.4"/>
  <path class="st1" d="m7.2 48.2c-3.6-4.8-5.7-10.7-5.7-17.1 0-15.8 12.8-28.5 28.5-28.5s28.5 12.8 28.5 28.5c0 6.4-2.1 12.3-5.7 17.1"/>
  <path class="st2" d="m30 37c2.3 0 6.6-3.1 7.1-4.1 0.6-1 0.8-1.9 1-3.1 0.1-0.3 0.8-1.8 1-2 1-1.3 1-5.1 1-5.1l-1-1s-0.2-3.2-0.4-4.8c-0.5-4.5-3.7-7.4-8.7-7.4s-8.2 2.9-8.8 7.5c-0.1 1.6-0.4 4.8-0.4 4.8l-1 1s0.1 3.8 1 5.1c0.2 0.2 1 1.8 1 2 0.2 1.2 0.4 2.1 1 3.1 0.6 0.9 4.8 4 7.2 4z"/>
  <path class="st3" d="m30 57.4c7.1 0 13.6-2.5 18.3-7.1v-4.1c-0.6-2-2.2-3.1-4.1-4.1l-7.1-3.1s-3.7 3.1-7.1 3.1-6.1-3.1-6.1-3.1l-8.2 3.1c-1.9 1-3.5 2-4.1 4.1v4.1c4.7 4.6 11.2 7.1 18.4 7.1z"/>
  <line class="st4" x1="23.9" x2="23.9" y1="39.1" y2="34"/>
  <line class="st4" x1="36.1" x2="36.1" y1="39.7" y2="34"/>
</svg>