<?xml version="1.0" encoding="UTF-8"?>
<!DOCTYPE svg  PUBLIC '-//W3C//DTD SVG 1.1//EN'  'http://www.w3.org/Graphics/SVG/1.1/DTD/svg11.dtd'>
<svg width="105.12px" height="79.971px" enable-background="new 0 0 105.125 79.971" version="1.1" viewBox="0 0 105.125 79.971" xml:space="preserve" xmlns="http://www.w3.org/2000/svg">
  <circle cx="52" cy="48.971" r="20" fill="#E9EAEB"/>
  <path d="m29.657 65.902c-3.517-4.677-5.602-10.492-5.602-16.795 0-15.448 12.523-27.972 27.973-27.972 15.449 0 27.972 12.524 27.972 27.972 0 6.304-2.085 12.121-5.604 16.798" fill="none" stroke="#D8D8D8" stroke-miterlimit="10" stroke-width="2"/>
  <path d="m52 54.971c2.292 0 6.438-3.063 7-4s0.775-1.863 1-3c0.053-0.27 0.828-1.771 1-2 0.942-1.253 1-5 1-5l-1-1s-0.244-3.141-0.383-4.681c-0.575-4.498-3.674-7.319-8.617-7.319s-8.042 2.822-8.617 7.319c-0.139 1.541-0.383 4.681-0.383 4.681l-1 1s0.058 3.747 1 5c0.172 0.229 0.947 1.73 1 2 0.224 1.137 0.438 2.063 1 3s4.708 4 7 4z" fill="#fff" stroke="#2A5082" stroke-miterlimit="10" stroke-width="2"/>
  <path d="m52 74.971c7.004 0 13.39-2.432 18-7v-4c-0.561-2.002-2.162-3.026-4-4l-7-3s-3.604 3-7 3-6-3-6-3l-8 3c-1.838 0.974-3.439 1.998-4 4v4c4.61 4.569 10.996 7 18 7z" fill="#2DC1E5" stroke="#2A5082" stroke-miterlimit="10" stroke-width="2"/>
  <line x1="46" x2="46" y1="56.971" y2="51.971" fill="none" stroke="#2A5082" stroke-miterlimit="10" stroke-width="2"/>
  <line x1="58" x2="58" y1="57.565" y2="51.971" fill="none" stroke="#2A5082" stroke-miterlimit="10" stroke-width="2"/>
  <ellipse cx="12.771" cy="43.409" rx="2.104" ry="2.063" fill="#EE5456"/>
  <polygon points="86.028 32.771 85.644 33.905 86.359 34.864 85.163 34.849 84.471 35.826 84.116 34.683 82.973 34.328 83.95 33.636 83.935 32.439 84.894 33.155" fill="#EE5456"/>
  <polygon points="29.75 14.596 29.083 14.37 28.519 14.791 28.527 14.087 27.952 13.68 28.625 13.471 28.834 12.799 29.241 13.374 29.945 13.365 29.523 13.929" fill="#2EC3E6"/>
  <circle cx="15.25" cy="18.471" r="1.125" fill="none" stroke="#2EC3E6" stroke-miterlimit="10"/>
  <circle cx="89.75" cy="47.221" r="1.25" fill="#2EC3E6"/>
  <circle cx="71.688" cy="18.784" r="1.688" fill="#2EC3E6"/>
  <rect x="37" y="7.971" width="1" height="1" fill="#CECECE"/>
  <rect transform="matrix(.9503 -.3114 .3114 .9503 -14.218 29.892)" x="85" y="57.971" width="3" height="3" fill="#CECECE"/>
  <rect x="14.334" y="57.805" width="2" height="2" fill="#CECECE"/>
  <rect transform="matrix(.6706 -.7419 .7419 .6706 -18.86 23.474)" x="16" y="31.971" width="2" height="2" fill="none" stroke="#CECECE" stroke-miterlimit="10"/>
  <rect transform="matrix(.5866 -.8099 .8099 .5866 12.397 45.228)" x="49" y="8.971" width="3" height="3" fill="#2EC3E6"/>
  <circle cx="88.834" cy="21.638" r="1.5" fill="#FDDB00"/>
  <circle cx="26.583" cy="23.555" r=".75" fill="#FDDB00"/>
  <circle cx="63.625" cy="8.763" r="1.042" fill="#FDDB00"/>
  <polygon points="21.118 11.668 21.705 12.087 22.385 11.841 22.167 12.53 22.61 13.099 21.889 13.104 21.485 13.703 21.256 13.018 20.562 12.819 21.143 12.389" fill="#FDDB00"/>
  <polygon points="82.083 10.138 81.728 11.087 80.728 11.254 80.083 10.472 80.438 9.522 81.438 9.355" fill="#D8D8D8"/>
  <polygon points="40.083 17.305 38.819 17.826 37.736 16.992 37.917 15.638 39.181 15.117 40.264 15.95" fill="#D8D8D8"/>
  <polygon points="61.417 16.221 60.548 16.394 59.964 15.727 60.249 14.888 61.118 14.716 61.702 15.382" fill="#D8D8D8"/>
  <polygon points="94 36.555 92.964 37.015 92.047 36.348 92.166 35.221 93.202 34.76 94.119 35.427" fill="#D8D8D8"/>
</svg>
